<svg width="1448" height="1401" xmlns="http://www.w3.org/2000/svg" xmlns:xlink="http://www.w3.org/1999/xlink" xml:space="preserve" overflow="hidden"><defs><clipPath id="clip0"><path d="M650.036 1454.22 863.451 1240.81 1076.87 1454.22 863.451 1667.64Z" fill-rule="evenodd" clip-rule="evenodd"/></clipPath><clipPath id="clip1"><path d="M650.036 1454.22 863.451 1240.81 1076.87 1454.22 863.451 1667.64Z" fill-rule="evenodd" clip-rule="evenodd"/></clipPath><clipPath id="clip2"><path d="M650.036 1454.22 863.451 1240.81 1076.87 1454.22 863.451 1667.64Z" fill-rule="evenodd" clip-rule="evenodd"/></clipPath></defs><g transform="translate(-650 -506)"><g><g><g><path d="M388.227 660.635 376.332 683.485 375.828 684.412C348.217 731.353 297.222 760.505 242.707 760.505 215.362 760.505 188.348 753.134 164.666 739.195 129.136 718.295 103.865 684.838 93.5399 644.937 93.0839 643.239 92.7083 641.526 92.329 639.813L72.6553 790.816 405.308 790.816 388.227 660.635Z" transform="matrix(-1.00102 0 0 1 2053 747)"/><path d="M407.887 113.219 127.312 538.293C89.7998 602.064 111.093 684.24 174.913 721.75 238.714 759.279 320.856 737.967 358.383 674.15L548.818 308.07 443.843 208.281C416.467 180.056 407.148 148.53 407.887 113.219ZM288.924 633.306C273.963 658.766 241.198 667.251 215.755 652.306 190.297 637.315 181.795 604.58 196.773 579.121 211.733 553.661 244.499 545.177 269.94 560.138 295.383 575.113 303.901 607.864 288.924 633.306Z" transform="matrix(-1.00102 0 0 1 2053 747)"/><path d="M414.628 809.032 65.6772 809.032C41.9148 809.032 22.6646 828.297 22.6646 852.06L22.6646 981 457.623 981 457.623 852.06C457.623 828.297 438.373 809.032 414.628 809.032Z" transform="matrix(-1.00102 0 0 1 2053 747)"/><path d="M862.253 355.875C876.018 355.875 889.234 358.28 901.493 362.694L629.421 37.4428C586.031-9.7027 512.628-12.7338 465.498 30.6697 418.352 74.0425 415.337 147.449 458.725 194.577L746.041 467.529C748.492 405.55 799.661 355.875 862.253 355.875ZM574.008 148.562C556.047 165.094 528.075 163.915 511.542 145.954 494.978 127.992 496.141 100.02 514.119 83.4866 532.081 66.9245 560.053 68.0856 576.617 86.0655 593.151 104.026 591.986 131.998 574.008 148.562Z" transform="matrix(-1.00102 0 0 1 2053 747)"/><path d="M827.083 699.781 864.594 741.975 902.089 699.781 902.089 630.321 827.083 630.321Z" transform="matrix(-1.00102 0 0 1 2053 747)"/><path d="M862.253 376.099C809.183 376.099 766.155 419.111 766.155 472.196L766.155 610.473 958.334 610.473 958.334 472.196C958.336 419.111 915.338 376.099 862.253 376.099ZM862.253 506.771C841.526 506.771 824.741 489.971 824.741 469.259 824.741 448.532 841.526 431.732 862.253 431.732 882.965 431.732 899.78 448.53 899.78 469.259 899.78 489.969 882.967 506.771 862.253 506.771Z" transform="matrix(-1.00102 0 0 1 2053 747)"/></g></g></g><g clip-path="url(#clip0)"><g clip-path="url(#clip1)"><g clip-path="url(#clip2)"><path d="M1046.26 1428.43C1046.26 1428.43 1000.32 1431.79 980.065 1431.67 969.48 1431.61 963.633 1425.83 960.629 1420.59 953.726 1408.55 945.445 1390.3 930.378 1373.52L930.378 1534.93C945.452 1518.14 953.726 1499.89 960.629 1487.85 963.633 1482.62 969.477 1476.83 980.065 1476.77 1000.32 1476.65 1046.27 1480 1046.27 1480 1049.1 1480.14 1051.86 1479.12 1053.92 1477.17 1055.98 1475.21 1057.13 1472.49 1057.13 1469.65L1057.14 1438.78C1057.13 1435.95 1055.97 1433.23 1053.91 1431.28 1051.86 1429.33 1049.1 1428.29 1046.26 1428.43Z"/><path d="M836.01 1332.86C767.128 1328.07 702.213 1373.78 702.216 1454.22 702.216 1534.65 767.128 1580.38 836.013 1575.58 870.867 1573.16 894.971 1562.17 912.316 1548.26L912.321 1360.18C894.964 1346.27 870.874 1335.28 836.01 1332.86ZM832.421 1510.22C820.19 1522.47 800.338 1522.46 788.1 1510.22 775.862 1497.99 775.863 1478.14 788.104 1465.9 800.342 1453.66 820.194 1453.66 832.421 1465.9 844.659 1478.14 844.659 1497.98 832.421 1510.22Z"/></g></g></g><path d="M1036 1454C1036 1431.91 1053.91 1414 1076 1414L1186 1414C1208.09 1414 1226 1431.91 1226 1454L1226 1454C1226 1476.09 1208.09 1494 1186 1494L1076 1494C1053.91 1494 1036 1476.09 1036 1454Z" fill-rule="evenodd"/></g></svg>